<?xml version="1.0" standalone="no"?>
<!DOCTYPE svg PUBLIC "-//W3C//DTD SVG 20010904//EN"
 "http://www.w3.org/TR/2001/REC-SVG-20010904/DTD/svg10.dtd">
<svg version="1.0" xmlns="http://www.w3.org/2000/svg"
 width="80.000000pt" height="35.000000pt" viewBox="0 0 151.000000 78.000000"
 preserveAspectRatio="xMidYMid meet">

<g transform="translate(0.000000,78.000000) scale(0.100000,-0.100000)"
fill="#8972ff" stroke="none">
<path d="M735 418 c-58 -176 -92 -295 -86 -301 5 -5 12 -4 16 3 16 25 194 573
189 581 -3 5 -9 9 -14 9 -5 0 -52 -131 -105 -292z"/>
<path d="M470 515 c-74 -52 -136 -98 -138 -104 -3 -9 271 -201 289 -201 31 0
-6 35 -116 110 -68 47 -125 87 -125 90 0 3 57 43 125 90 112 76 148 111 113
109 -7 0 -74 -43 -148 -94z"/>
<path d="M865 600 c-3 -5 53 -49 124 -97 72 -48 130 -90 130 -93 0 -3 -59 -45
-130 -93 -95 -65 -128 -92 -120 -100 14 -14 290 170 290 193 0 13 -263 200
-281 200 -4 0 -9 -4 -13 -10z"/>
</g>
</svg>
